<svg aria-roledescription="er" role="graphics-document document" viewBox="-119.14990234375 0 451.6693115234375 576" style="max-width: 451.669px; background-color: white;" xmlns:xlink="http://www.w3.org/1999/xlink" xmlns="http://www.w3.org/2000/svg" width="100%" id="my-svg"><style>#my-svg{font-family:"trebuchet ms",verdana,arial,sans-serif;font-size:16px;fill:#000000;}#my-svg .error-icon{fill:#552222;}#my-svg .error-text{fill:#552222;stroke:#552222;}#my-svg .edge-thickness-normal{stroke-width:2px;}#my-svg .edge-thickness-thick{stroke-width:3.5px;}#my-svg .edge-pattern-solid{stroke-dasharray:0;}#my-svg .edge-pattern-dashed{stroke-dasharray:3;}#my-svg .edge-pattern-dotted{stroke-dasharray:2;}#my-svg .marker{fill:#000000;stroke:#000000;}#my-svg .marker.cross{stroke:#000000;}#my-svg svg{font-family:"trebuchet ms",verdana,arial,sans-serif;font-size:16px;}#my-svg .entityBox{fill:#cde498;stroke:#13540c;}#my-svg .attributeBoxOdd{fill:#ffffff;stroke:#13540c;}#my-svg .attributeBoxEven{fill:#f2f2f2;stroke:#13540c;}#my-svg .relationshipLabelBox{fill:hsl(78.1578947368, 58.4615384615%, 84.5098039216%);opacity:0.7;background-color:hsl(78.1578947368, 58.4615384615%, 84.5098039216%);}#my-svg .relationshipLabelBox rect{opacity:0.5;}#my-svg .relationshipLine{stroke:#000000;}#my-svg .entityTitleText{text-anchor:middle;font-size:18px;fill:#000000;}#my-svg #MD_PARENT_START{fill:#f5f5f5!important;stroke:#000000!important;stroke-width:1;}#my-svg #MD_PARENT_END{fill:#f5f5f5!important;stroke:#000000!important;stroke-width:1;}#my-svg :root{--mermaid-font-family:"trebuchet ms",verdana,arial,sans-serif;}</style><g/><defs><marker orient="auto" markerHeight="240" markerWidth="190" refY="7" refX="0" id="MD_PARENT_START"><path d="M 18,7 L9,13 L1,7 L9,1 Z"/></marker></defs><defs><marker orient="auto" markerHeight="28" markerWidth="20" refY="7" refX="19" id="MD_PARENT_END"><path d="M 18,7 L9,13 L1,7 L9,1 Z"/></marker></defs><defs><marker orient="auto" markerHeight="18" markerWidth="18" refY="9" refX="0" id="ONLY_ONE_START"><path d="M9,0 L9,18 M15,0 L15,18" fill="none" stroke="gray"/></marker></defs><defs><marker orient="auto" markerHeight="18" markerWidth="18" refY="9" refX="18" id="ONLY_ONE_END"><path d="M3,0 L3,18 M9,0 L9,18" fill="none" stroke="gray"/></marker></defs><defs><marker orient="auto" markerHeight="18" markerWidth="30" refY="9" refX="0" id="ZERO_OR_ONE_START"><circle r="6" cy="9" cx="21" fill="white" stroke="gray"/><path d="M9,0 L9,18" fill="none" stroke="gray"/></marker></defs><defs><marker orient="auto" markerHeight="18" markerWidth="30" refY="9" refX="30" id="ZERO_OR_ONE_END"><circle r="6" cy="9" cx="9" fill="white" stroke="gray"/><path d="M21,0 L21,18" fill="none" stroke="gray"/></marker></defs><defs><marker orient="auto" markerHeight="36" markerWidth="45" refY="18" refX="18" id="ONE_OR_MORE_START"><path d="M0,18 Q 18,0 36,18 Q 18,36 0,18 M42,9 L42,27" fill="none" stroke="gray"/></marker></defs><defs><marker orient="auto" markerHeight="36" markerWidth="45" refY="18" refX="27" id="ONE_OR_MORE_END"><path d="M3,9 L3,27 M9,18 Q27,0 45,18 Q27,36 9,18" fill="none" stroke="gray"/></marker></defs><defs><marker orient="auto" markerHeight="36" markerWidth="57" refY="18" refX="18" id="ZERO_OR_MORE_START"><circle r="6" cy="18" cx="48" fill="white" stroke="gray"/><path d="M0,18 Q18,0 36,18 Q18,36 0,18" fill="none" stroke="gray"/></marker></defs><defs><marker orient="auto" markerHeight="36" markerWidth="57" refY="18" refX="39" id="ZERO_OR_MORE_END"><circle r="6" cy="18" cx="9" fill="white" stroke="gray"/><path d="M21,18 Q39,0 57,18 Q39,36 21,18" fill="none" stroke="gray"/></marker></defs><path style="stroke: gray; fill: none;" marker-start="url(#ZERO_OR_MORE_START)" marker-end="url(#ZERO_OR_MORE_END)" d="M64.2882595422133,132L60.3574419321504,140.33333333333334C56.42662432208751,148.66666666666666,48.56498910196172,165.33333333333334,49.02013640417953,182C49.47528370639734,198.66666666666666,58.24721353095874,215.33333333333334,62.633178443239444,223.66666666666666L67.01914335552014,232" class="er relationshipLine"/><path style="stroke: gray; fill: none;" marker-start="url(#ZERO_OR_MORE_START)" marker-end="url(#ZERO_OR_MORE_END)" d="M20,118.65286672387865L2.498812993367513,129.21072226989887C-15.002374013264975,139.7685778159191,-50.004748026529946,160.88428890795956,-67.50593503316243,187.2754777873131C-85.00712203979492,213.66666666666666,-85.00712203979492,245.33333333333334,-85.00712203979492,277C-85.00712203979492,308.6666666666667,-85.00712203979492,340.3333333333333,-55.94079844156901,369.6928260263389C-26.874474843343098,399.0523187193444,31.258172353108723,426.1046374386888,60.32449595133463,439.630796798361L89.39081954956055,453.15695615803327" class="er relationshipLine"/><path style="stroke: gray; fill: none;" marker-start="url(#ZERO_OR_MORE_START)" marker-end="url(#ZERO_OR_MORE_END)" d="M90.70335388183594,322L90.70335388183594,330.3333333333333C90.70335388183594,338.6666666666667,90.70335388183594,355.3333333333333,96.09583792183814,372C101.48832196184033,388.6666666666667,112.27329004184473,405.3333333333333,117.66577408184692,413.6666666666667L123.05825812184912,422" class="er relationshipLine"/><path style="stroke: gray; fill: none;" marker-start="url(#ZERO_OR_ONE_START)" marker-end="url(#ONLY_ONE_END)" d="M114.38756440815173,232L118.77352932043243,223.66666666666666C123.15949423271313,215.33333333333334,131.93142405727454,198.66666666666666,132.38657135949236,182C132.84171866171016,165.33333333333334,124.98008344158437,148.66666666666666,121.04926583152148,140.33333333333334L117.11844822145858,132" class="er relationshipLine"/><path style="stroke: gray; fill: none;" marker-start="url(#ZERO_OR_ONE_START)" marker-end="url(#ONLY_ONE_END)" d="M223.67878706842407,422L230.8012941909312,413.6666666666667C237.9238013134383,405.3333333333333,252.16881555845256,388.6666666666667,259.2913226809597,364.5C266.4138298034668,340.3333333333333,266.4138298034668,308.6666666666667,266.4138298034668,277C266.4138298034668,245.33333333333334,266.4138298034668,213.66666666666666,248.91264279683432,187.2754777873131C231.4114557902018,160.88428890795956,196.40908177693686,139.7685778159191,178.90789477030435,129.21072226989887L161.40670776367188,118.65286672387865" class="er relationshipLine"/><path style="stroke: gray; fill: none;" marker-start="url(#ZERO_OR_ONE_START)" marker-end="url(#ONLY_ONE_END)" d="M243.43684005737305,443.94153900146483L263.93300501505536,431.9512825012207C284.4291699727376,419.9610260009766,325.42149988810223,395.9805130004883,308.53607749938965,371.1098942795611C291.65065511067706,346.239275558634,216.88748041788736,320.4785511172679,179.50589307149252,307.5981888965849L142.12430572509766,294.71782667590185" class="er relationshipLine"/><g transform="translate(20,20 )" id="entity-polls-52ad6318-c35c-5d32-b27d-9148abe17ba6"><rect height="112" width="141.40670776367188" y="0" x="0" class="er entityBox"/><text style="dominant-baseline: middle; text-anchor: middle; font-size: 12px;" transform="translate(70.70335388183594,12)" y="0" x="0" id="text-entity-polls-52ad6318-c35c-5d32-b27d-9148abe17ba6" class="er entityLabel">polls</text><rect height="22" width="54.095550537109375" y="24" x="0" class="er attributeBoxOdd"/><text style="dominant-baseline: middle; font-size: 10.2px;" transform="translate(5,35)" y="0" x="0" id="text-entity-polls-52ad6318-c35c-5d32-b27d-9148abe17ba6-attr-1-type" class="er entityLabel">String</text><rect height="22" width="63.2955322265625" y="24" x="54.095550537109375" class="er attributeBoxOdd"/><text style="dominant-baseline: middle; font-size: 10.2px;" transform="translate(59.095550537109375,35)" y="0" x="0" id="text-entity-polls-52ad6318-c35c-5d32-b27d-9148abe17ba6-attr-1-name" class="er entityLabel">id</text><rect height="22" width="24.015625" y="24" x="117.39108276367188" class="er attributeBoxOdd"/><text style="dominant-baseline: middle; font-size: 10.2px;" transform="translate(122.39108276367188,35)" y="0" x="0" id="text-entity-polls-52ad6318-c35c-5d32-b27d-9148abe17ba6-attr-1-comment" class="er entityLabel">🗝️</text><rect height="22" width="54.095550537109375" y="46" x="0" class="er attributeBoxEven"/><text style="dominant-baseline: middle; font-size: 10.2px;" transform="translate(5,57)" y="0" x="0" id="text-entity-polls-52ad6318-c35c-5d32-b27d-9148abe17ba6-attr-2-type" class="er entityLabel">String</text><rect height="22" width="63.2955322265625" y="46" x="54.095550537109375" class="er attributeBoxEven"/><text style="dominant-baseline: middle; font-size: 10.2px;" transform="translate(59.095550537109375,57)" y="0" x="0" id="text-entity-polls-52ad6318-c35c-5d32-b27d-9148abe17ba6-attr-2-name" class="er entityLabel">title</text><rect height="22" width="24.015625" y="46" x="117.39108276367188" class="er attributeBoxEven"/><text style="dominant-baseline: middle; font-size: 10.2px;" transform="translate(122.39108276367188,57)" y="0" x="0" id="text-entity-polls-52ad6318-c35c-5d32-b27d-9148abe17ba6-attr-2-comment" class="er entityLabel"/><rect height="22" width="54.095550537109375" y="68" x="0" class="er attributeBoxOdd"/><text style="dominant-baseline: middle; font-size: 10.2px;" transform="translate(5,79)" y="0" x="0" id="text-entity-polls-52ad6318-c35c-5d32-b27d-9148abe17ba6-attr-3-type" class="er entityLabel">DateTime</text><rect height="22" width="63.2955322265625" y="68" x="54.095550537109375" class="er attributeBoxOdd"/><text style="dominant-baseline: middle; font-size: 10.2px;" transform="translate(59.095550537109375,79)" y="0" x="0" id="text-entity-polls-52ad6318-c35c-5d32-b27d-9148abe17ba6-attr-3-name" class="er entityLabel">created_at</text><rect height="22" width="24.015625" y="68" x="117.39108276367188" class="er attributeBoxOdd"/><text style="dominant-baseline: middle; font-size: 10.2px;" transform="translate(122.39108276367188,79)" y="0" x="0" id="text-entity-polls-52ad6318-c35c-5d32-b27d-9148abe17ba6-attr-3-comment" class="er entityLabel"/><rect height="22" width="54.095550537109375" y="90" x="0" class="er attributeBoxEven"/><text style="dominant-baseline: middle; font-size: 10.2px;" transform="translate(5,101)" y="0" x="0" id="text-entity-polls-52ad6318-c35c-5d32-b27d-9148abe17ba6-attr-4-type" class="er entityLabel">DateTime</text><rect height="22" width="63.2955322265625" y="90" x="54.095550537109375" class="er attributeBoxEven"/><text style="dominant-baseline: middle; font-size: 10.2px;" transform="translate(59.095550537109375,101)" y="0" x="0" id="text-entity-polls-52ad6318-c35c-5d32-b27d-9148abe17ba6-attr-4-name" class="er entityLabel">updated_at</text><rect height="22" width="24.015625" y="90" x="117.39108276367188" class="er attributeBoxEven"/><text style="dominant-baseline: middle; font-size: 10.2px;" transform="translate(122.39108276367188,101)" y="0" x="0" id="text-entity-polls-52ad6318-c35c-5d32-b27d-9148abe17ba6-attr-4-comment" class="er entityLabel">❓</text></g><g transform="translate(39.28240203857422,232 )" id="entity-polloptions-086c540f-42c9-553a-aaec-a26fae6f59d0"><rect height="90" width="102.84190368652344" y="0" x="0" class="er entityBox"/><text style="dominant-baseline: middle; text-anchor: middle; font-size: 12px;" transform="translate(51.42095184326172,12)" y="0" x="0" id="text-entity-polloptions-086c540f-42c9-553a-aaec-a26fae6f59d0" class="er entityLabel">poll_options</text><rect height="22" width="37.39605712890625" y="24" x="0" class="er attributeBoxOdd"/><text style="dominant-baseline: middle; font-size: 10.2px;" transform="translate(5,35)" y="0" x="0" id="text-entity-polloptions-086c540f-42c9-553a-aaec-a26fae6f59d0-attr-1-type" class="er entityLabel">String</text><rect height="22" width="41.43022155761719" y="24" x="37.39605712890625" class="er attributeBoxOdd"/><text style="dominant-baseline: middle; font-size: 10.2px;" transform="translate(42.39605712890625,35)" y="0" x="0" id="text-entity-polloptions-086c540f-42c9-553a-aaec-a26fae6f59d0-attr-1-name" class="er entityLabel">id</text><rect height="22" width="24.015625" y="24" x="78.82627868652344" class="er attributeBoxOdd"/><text style="dominant-baseline: middle; font-size: 10.2px;" transform="translate(83.82627868652344,35)" y="0" x="0" id="text-entity-polloptions-086c540f-42c9-553a-aaec-a26fae6f59d0-attr-1-comment" class="er entityLabel">🗝️</text><rect height="22" width="37.39605712890625" y="46" x="0" class="er attributeBoxEven"/><text style="dominant-baseline: middle; font-size: 10.2px;" transform="translate(5,57)" y="0" x="0" id="text-entity-polloptions-086c540f-42c9-553a-aaec-a26fae6f59d0-attr-2-type" class="er entityLabel">String</text><rect height="22" width="41.43022155761719" y="46" x="37.39605712890625" class="er attributeBoxEven"/><text style="dominant-baseline: middle; font-size: 10.2px;" transform="translate(42.39605712890625,57)" y="0" x="0" id="text-entity-polloptions-086c540f-42c9-553a-aaec-a26fae6f59d0-attr-2-name" class="er entityLabel">title</text><rect height="22" width="24.015625" y="46" x="78.82627868652344" class="er attributeBoxEven"/><text style="dominant-baseline: middle; font-size: 10.2px;" transform="translate(83.82627868652344,57)" y="0" x="0" id="text-entity-polloptions-086c540f-42c9-553a-aaec-a26fae6f59d0-attr-2-comment" class="er entityLabel"/><rect height="22" width="37.39605712890625" y="68" x="0" class="er attributeBoxOdd"/><text style="dominant-baseline: middle; font-size: 10.2px;" transform="translate(5,79)" y="0" x="0" id="text-entity-polloptions-086c540f-42c9-553a-aaec-a26fae6f59d0-attr-3-type" class="er entityLabel">String</text><rect height="22" width="41.43022155761719" y="68" x="37.39605712890625" class="er attributeBoxOdd"/><text style="dominant-baseline: middle; font-size: 10.2px;" transform="translate(42.39605712890625,79)" y="0" x="0" id="text-entity-polloptions-086c540f-42c9-553a-aaec-a26fae6f59d0-attr-3-name" class="er entityLabel">poll_id</text><rect height="22" width="24.015625" y="68" x="78.82627868652344" class="er attributeBoxOdd"/><text style="dominant-baseline: middle; font-size: 10.2px;" transform="translate(83.82627868652344,79)" y="0" x="0" id="text-entity-polloptions-086c540f-42c9-553a-aaec-a26fae6f59d0-attr-3-comment" class="er entityLabel"/></g><g transform="translate(89.39081954956055,422 )" id="entity-votes-4953a1ed-324b-5646-b6d1-a1d4438db2fc"><rect height="134" width="154.0460205078125" y="0" x="0" class="er entityBox"/><text style="dominant-baseline: middle; text-anchor: middle; font-size: 12px;" transform="translate(77.02301025390625,12)" y="0" x="0" id="text-entity-votes-4953a1ed-324b-5646-b6d1-a1d4438db2fc" class="er entityLabel">votes</text><rect height="22" width="54.095550537109375" y="24" x="0" class="er attributeBoxOdd"/><text style="dominant-baseline: middle; font-size: 10.2px;" transform="translate(5,35)" y="0" x="0" id="text-entity-votes-4953a1ed-324b-5646-b6d1-a1d4438db2fc-attr-1-type" class="er entityLabel">Int</text><rect height="22" width="75.93484497070312" y="24" x="54.095550537109375" class="er attributeBoxOdd"/><text style="dominant-baseline: middle; font-size: 10.2px;" transform="translate(59.095550537109375,35)" y="0" x="0" id="text-entity-votes-4953a1ed-324b-5646-b6d1-a1d4438db2fc-attr-1-name" class="er entityLabel">id</text><rect height="22" width="24.015625" y="24" x="130.0303955078125" class="er attributeBoxOdd"/><text style="dominant-baseline: middle; font-size: 10.2px;" transform="translate(135.0303955078125,35)" y="0" x="0" id="text-entity-votes-4953a1ed-324b-5646-b6d1-a1d4438db2fc-attr-1-comment" class="er entityLabel">🗝️</text><rect height="22" width="54.095550537109375" y="46" x="0" class="er attributeBoxEven"/><text style="dominant-baseline: middle; font-size: 10.2px;" transform="translate(5,57)" y="0" x="0" id="text-entity-votes-4953a1ed-324b-5646-b6d1-a1d4438db2fc-attr-2-type" class="er entityLabel">String</text><rect height="22" width="75.93484497070312" y="46" x="54.095550537109375" class="er attributeBoxEven"/><text style="dominant-baseline: middle; font-size: 10.2px;" transform="translate(59.095550537109375,57)" y="0" x="0" id="text-entity-votes-4953a1ed-324b-5646-b6d1-a1d4438db2fc-attr-2-name" class="er entityLabel">session_id</text><rect height="22" width="24.015625" y="46" x="130.0303955078125" class="er attributeBoxEven"/><text style="dominant-baseline: middle; font-size: 10.2px;" transform="translate(135.0303955078125,57)" y="0" x="0" id="text-entity-votes-4953a1ed-324b-5646-b6d1-a1d4438db2fc-attr-2-comment" class="er entityLabel"/><rect height="22" width="54.095550537109375" y="68" x="0" class="er attributeBoxOdd"/><text style="dominant-baseline: middle; font-size: 10.2px;" transform="translate(5,79)" y="0" x="0" id="text-entity-votes-4953a1ed-324b-5646-b6d1-a1d4438db2fc-attr-3-type" class="er entityLabel">DateTime</text><rect height="22" width="75.93484497070312" y="68" x="54.095550537109375" class="er attributeBoxOdd"/><text style="dominant-baseline: middle; font-size: 10.2px;" transform="translate(59.095550537109375,79)" y="0" x="0" id="text-entity-votes-4953a1ed-324b-5646-b6d1-a1d4438db2fc-attr-3-name" class="er entityLabel">created_at</text><rect height="22" width="24.015625" y="68" x="130.0303955078125" class="er attributeBoxOdd"/><text style="dominant-baseline: middle; font-size: 10.2px;" transform="translate(135.0303955078125,79)" y="0" x="0" id="text-entity-votes-4953a1ed-324b-5646-b6d1-a1d4438db2fc-attr-3-comment" class="er entityLabel"/><rect height="22" width="54.095550537109375" y="90" x="0" class="er attributeBoxEven"/><text style="dominant-baseline: middle; font-size: 10.2px;" transform="translate(5,101)" y="0" x="0" id="text-entity-votes-4953a1ed-324b-5646-b6d1-a1d4438db2fc-attr-4-type" class="er entityLabel">String</text><rect height="22" width="75.93484497070312" y="90" x="54.095550537109375" class="er attributeBoxEven"/><text style="dominant-baseline: middle; font-size: 10.2px;" transform="translate(59.095550537109375,101)" y="0" x="0" id="text-entity-votes-4953a1ed-324b-5646-b6d1-a1d4438db2fc-attr-4-name" class="er entityLabel">poll_id</text><rect height="22" width="24.015625" y="90" x="130.0303955078125" class="er attributeBoxEven"/><text style="dominant-baseline: middle; font-size: 10.2px;" transform="translate(135.0303955078125,101)" y="0" x="0" id="text-entity-votes-4953a1ed-324b-5646-b6d1-a1d4438db2fc-attr-4-comment" class="er entityLabel"/><rect height="22" width="54.095550537109375" y="112" x="0" class="er attributeBoxOdd"/><text style="dominant-baseline: middle; font-size: 10.2px;" transform="translate(5,123)" y="0" x="0" id="text-entity-votes-4953a1ed-324b-5646-b6d1-a1d4438db2fc-attr-5-type" class="er entityLabel">String</text><rect height="22" width="75.93484497070312" y="112" x="54.095550537109375" class="er attributeBoxOdd"/><text style="dominant-baseline: middle; font-size: 10.2px;" transform="translate(59.095550537109375,123)" y="0" x="0" id="text-entity-votes-4953a1ed-324b-5646-b6d1-a1d4438db2fc-attr-5-name" class="er entityLabel">poll_option_id</text><rect height="22" width="24.015625" y="112" x="130.0303955078125" class="er attributeBoxOdd"/><text style="dominant-baseline: middle; font-size: 10.2px;" transform="translate(135.0303955078125,123)" y="0" x="0" id="text-entity-votes-4953a1ed-324b-5646-b6d1-a1d4438db2fc-attr-5-comment" class="er entityLabel"/></g><rect height="14" width="39.30078125" y="175.41943359375" x="29.382999420166016" class="er relationshipLabelBox"/><text style="text-anchor: middle; dominant-baseline: middle; font-size: 12px;" y="182.41943359375" x="49.033390045166016" id="rel1" class="er relationshipLabel">options</text><rect height="14" width="29.619140625" y="301.80157470703125" x="-98.71728515625" class="er relationshipLabelBox"/><text style="text-anchor: middle; dominant-baseline: middle; font-size: 12px;" y="308.80157470703125" x="-83.90771484375" id="rel2" class="er relationshipLabel">votes</text><rect height="14" width="29.619140625" y="368.050048828125" x="82.33167266845703" class="er relationshipLabelBox"/><text style="text-anchor: middle; dominant-baseline: middle; font-size: 12px;" y="375.050048828125" x="97.14124298095703" id="rel3" class="er relationshipLabel">votes</text><rect height="14" width="20.6640625" y="175.41943359375" x="122.04127502441406" class="er relationshipLabelBox"/><text style="text-anchor: middle; dominant-baseline: middle; font-size: 12px;" y="182.41943359375" x="132.37330627441406" id="rel4" class="er relationshipLabel">poll</text><rect height="14.000015258789062" width="20.6640625" y="245.68473052978516" x="255.78500366210938" class="er relationshipLabelBox"/><text style="text-anchor: middle; dominant-baseline: middle; font-size: 12px;" y="252.6847381591797" x="266.1170349121094" id="rel5" class="er relationshipLabel">poll</text><rect height="14" width="56.59375" y="340.8349914550781" x="250.14447021484375" class="er relationshipLabelBox"/><text style="text-anchor: middle; dominant-baseline: middle; font-size: 12px;" y="347.8349914550781" x="278.44134521484375" id="rel6" class="er relationshipLabel">pollOption</text></svg>